<?xml version="1.0" encoding="UTF-8" standalone="no"?>
<!-- Created with Inkscape (http://www.inkscape.org/) -->

<svg
   width="100mm"
   height="100mm"
   viewBox="0 0 100 100"
   version="1.1"
   id="svg5"
   inkscape:version="1.2.2 (732a01da63, 2022-12-09)"
   sodipodi:docname="about-icon.svg"
   xml:space="preserve"
   xmlns:inkscape="http://www.inkscape.org/namespaces/inkscape"
   xmlns:sodipodi="http://sodipodi.sourceforge.net/DTD/sodipodi-0.dtd"
   xmlns="http://www.w3.org/2000/svg"
   xmlns:svg="http://www.w3.org/2000/svg"><sodipodi:namedview
     id="namedview7"
     pagecolor="#ffffff"
     bordercolor="#000000"
     borderopacity="0.25"
     inkscape:showpageshadow="2"
     inkscape:pageopacity="0.0"
     inkscape:pagecheckerboard="0"
     inkscape:deskcolor="#d1d1d1"
     inkscape:document-units="mm"
     showgrid="true"
     inkscape:zoom="1.3310398"
     inkscape:cx="450.39974"
     inkscape:cy="148.75588"
     inkscape:window-width="2560"
     inkscape:window-height="1017"
     inkscape:window-x="1912"
     inkscape:window-y="7"
     inkscape:window-maximized="1"
     inkscape:current-layer="g16569"><inkscape:grid
       type="xygrid"
       id="grid1883" /></sodipodi:namedview><defs
     id="defs2"><inkscape:path-effect
       effect="bspline"
       id="path-effect13401"
       is_visible="true"
       lpeversion="1"
       weight="33.333333"
       steps="2"
       helper_size="0"
       apply_no_weight="true"
       apply_with_weight="true"
       only_selected="false" /><inkscape:path-effect
       effect="bspline"
       id="path-effect13397"
       is_visible="true"
       lpeversion="1"
       weight="33.333333"
       steps="2"
       helper_size="0"
       apply_no_weight="true"
       apply_with_weight="true"
       only_selected="false" /><inkscape:path-effect
       effect="bspline"
       id="path-effect11211"
       is_visible="true"
       lpeversion="1"
       weight="33.333333"
       steps="2"
       helper_size="0"
       apply_no_weight="true"
       apply_with_weight="true"
       only_selected="false" /></defs><g
     inkscape:label="Layer 1"
     inkscape:groupmode="layer"
     id="layer1"><g
       id="g16564" /><g
       id="g16569"><path
         id="path16575"
         style="fill:none;stroke:#000000;stroke-width:3.20025;stroke-linecap:round;stroke-linejoin:round;stroke-dasharray:none;stroke-opacity:1;stop-color:#000000"
         d="m 49.2125,10.576577 c 0,84.673423 0,84.673423 0,84.673423 M 89.708485,12.417304 v 69.94761 c 0,0 -12.224868,-2.805805 -18.407265,-1.840726 -6.241557,0.974314 -12.025845,2.971045 -16.566539,7.362904 -2.571633,2.487339 -5.522181,9.203634 -5.522181,9.203634 0,0 -3.015444,-6.650906 -5.52218,-9.203634 C 39.634635,83.756997 34.658823,81.563919 28.964507,80.524188 22.80901,79.400247 10.557242,82.364914 10.557242,82.364914 V 12.417304 M 49.2125,97.090726 c 0,0 -12.798296,-9.144731 -20.247993,-11.04436 -4.161853,-1.061248 -8.645516,-0.687987 -12.885086,0 -3.830484,0.621602 -11.0443595,3.681452 -11.0443595,3.681452 l 1.3e-6,-75.469788 5.5221792,-1.840726 V 6.8951251 c 0,0 12.15177,-3.8303106 18.407265,-3.6814542 5.058243,0.1203713 10.09867,1.6345443 14.725813,3.6814527 2.02316,0.8949848 5.52218,3.6814524 5.52218,3.6814524 0,0 3.487422,-2.813159 5.522181,-3.6814524 5.202959,-2.2202634 10.90997,-3.6212837 16.566537,-3.6814527 6.256913,-0.066551 18.407267,3.6814542 18.407267,3.6814542 v 5.5221789 l 5.52218,1.840726 -10e-7,75.469788 c 0,0 -7.213875,-3.05985 -11.044359,-3.681452 -4.239569,-0.687987 -8.704955,-0.986796 -12.885087,0 C 63.289452,87.937687 49.2125,97.090726 49.2125,97.090726 Z" /></g></g></svg>
