<?xml version="1.0" encoding="UTF-8" standalone="no"?>
<!-- Created with Inkscape (http://www.inkscape.org/) -->

<svg
   width="100mm"
   height="100mm"
   viewBox="0 0 100 100"
   version="1.1"
   id="svg5"
   inkscape:version="1.2.2 (732a01da63, 2022-12-09)"
   sodipodi:docname="skills-icon.svg"
   xml:space="preserve"
   xmlns:inkscape="http://www.inkscape.org/namespaces/inkscape"
   xmlns:sodipodi="http://sodipodi.sourceforge.net/DTD/sodipodi-0.dtd"
   xmlns="http://www.w3.org/2000/svg"
   xmlns:svg="http://www.w3.org/2000/svg"><sodipodi:namedview
     id="namedview7"
     pagecolor="#ffffff"
     bordercolor="#000000"
     borderopacity="0.25"
     inkscape:showpageshadow="2"
     inkscape:pageopacity="0.0"
     inkscape:pagecheckerboard="0"
     inkscape:deskcolor="#d1d1d1"
     inkscape:document-units="mm"
     showgrid="true"
     inkscape:zoom="1.3310398"
     inkscape:cx="450.39974"
     inkscape:cy="148.75588"
     inkscape:window-width="2560"
     inkscape:window-height="1017"
     inkscape:window-x="1912"
     inkscape:window-y="7"
     inkscape:window-maximized="1"
     inkscape:current-layer="g16569"><inkscape:grid
       type="xygrid"
       id="grid1883" /></sodipodi:namedview><defs
     id="defs2"><inkscape:path-effect
       effect="bspline"
       id="path-effect13401"
       is_visible="true"
       lpeversion="1"
       weight="33.333333"
       steps="2"
       helper_size="0"
       apply_no_weight="true"
       apply_with_weight="true"
       only_selected="false" /><inkscape:path-effect
       effect="bspline"
       id="path-effect13397"
       is_visible="true"
       lpeversion="1"
       weight="33.333333"
       steps="2"
       helper_size="0"
       apply_no_weight="true"
       apply_with_weight="true"
       only_selected="false" /><inkscape:path-effect
       effect="bspline"
       id="path-effect11211"
       is_visible="true"
       lpeversion="1"
       weight="33.333333"
       steps="2"
       helper_size="0"
       apply_no_weight="true"
       apply_with_weight="true"
       only_selected="false" /></defs><g
     inkscape:label="Layer 1"
     inkscape:groupmode="layer"
     id="layer1"><g
       id="g16564" /><g
       id="g16569"><path
         d="M 91.155716,40.603646 H 87.45038 c -3.022786,0 -5.558014,-2.608366 -5.558014,-5.704277 0,-1.560144 0.658182,-2.974025 1.82829,-4.022246 l 2.388973,-2.340216 c 2.364595,-2.340216 2.364595,-6.167445 0,-8.507662 l -5.436128,-5.387372 c -1.072602,-1.072599 -2.657122,-1.706408 -4.266021,-1.706408 -1.608898,0 -3.169039,0.633809 -4.26602,1.706408 l -2.291459,2.291461 c -1.096971,1.218863 -2.559606,1.877049 -4.144135,1.877049 -3.120282,0 -5.728647,-2.535234 -5.728647,-5.533636 V 9.5470264 c 0,-3.290928 -2.657121,-6.1186899 -5.972434,-6.1186899 h -7.410681 c -3.315303,0 -5.948046,2.8033849 -5.948046,6.1186899 V 13.25237 c 0,2.998402 -2.608364,5.533635 -5.728655,5.533635 -1.560141,0 -2.998407,-0.658186 -4.046621,-1.803916 l -2.364595,-2.340216 c -1.072602,-1.096976 -2.657122,-1.706408 -4.26602,-1.706408 -1.608899,0 -3.16904,0.633809 -4.266021,1.706408 l -5.484876,5.362995 c -2.340217,2.340217 -2.340217,6.167445 0,8.483284 l 2.291458,2.291461 c 1.218866,1.096977 1.901426,2.559612 1.901426,4.119756 0,3.120288 -2.535238,5.704277 -5.558014,5.704277 H 9.4187946 c -3.3396818,0 -6.1430672,2.608365 -6.1430672,5.923672 v 3.705341 3.705343 c 0,3.290929 2.8033854,5.923672 6.1430672,5.923672 H 13.12414 c 3.022776,0 5.558014,2.608366 5.558014,5.704277 0,1.560143 -0.68256,3.022778 -1.901426,4.119755 L 14.48927,71.95279 c -2.340217,2.340216 -2.340217,6.167445 0,8.483285 l 5.436119,5.41175 c 1.072602,1.096971 2.657122,1.706404 4.26602,1.706404 1.608899,0 3.169049,-0.633811 4.266021,-1.706404 l 2.364594,-2.340216 c 1.023845,-1.14573 2.48648,-1.80392 4.046621,-1.80392 3.120291,0 5.728655,2.535237 5.728655,5.533634 v 3.705346 c 0,3.290924 2.632744,6.118688 5.972425,6.118688 h 7.410691 c 3.315303,0 5.948046,-2.803385 5.948046,-6.118688 v -3.705346 c 0,-2.998397 2.608364,-5.533634 5.728655,-5.533634 1.560141,0 3.022776,0.68256 4.144127,1.877047 l 2.291468,2.291468 c 1.096971,1.072592 2.657121,1.706404 4.26602,1.706404 1.608899,0 3.16904,-0.633812 4.266011,-1.706404 l 5.436129,-5.41175 c 2.340216,-2.340219 2.340216,-6.167448 0,-8.507664 l -2.388965,-2.340216 c -1.170108,-1.048222 -1.828298,-2.48648 -1.828298,-4.022247 0,-3.120287 2.535237,-5.704276 5.558013,-5.704276 h 3.705345 c 3.315303,0 5.679895,-2.608365 5.679895,-5.923672 v -3.72972 -3.705341 c 0.04874,-3.315307 -2.315834,-5.923672 -5.631146,-5.923672 z m -21.378842,9.629013 v 0 c 0,10.750368 -8.702683,19.501801 -19.501803,19.501801 -10.799121,0 -19.501804,-8.751433 -19.501804,-19.501801 v 0 0 c 0,-10.750367 8.702683,-19.5018 19.501804,-19.5018 10.79912,0 19.501803,8.751433 19.501803,19.5018 z"
         id="path19856"
         style="stroke-width:0.243772" /></g></g></svg>
